<svg fill="none" xmlns="http://www.w3.org/2000/svg" viewBox="0 0 16 16">
  <g clipPath="url(#a)">
    <path fillRule="evenodd" clipRule="evenodd" d="M10.27 14.1a6.5 6.5 0 0 0 3.67-3.45q-1.24.21-2.7.34-.31 1.83-.97 3.11zm-4.54 0q-.66-1.28-.97-3.11-1.46-.13-2.7-.34a6.5 6.5 0 0 0 3.67 3.45zm4.19-4.17q.1-.72.15-1.48h3.37a6.47 6.47 0 0 1-1.7 2.95q-.86-.08-1.82-.21v-1.26zm-3.84 0v1.26q-.96.13-1.82.21a6.47 6.47 0 0 1-1.7-2.95h3.37q.05.76.15 1.48zm3.99-2.48q-.05-.76-.15-1.48v-1.26q.96-.13 1.82-.21a6.47 6.47 0 0 1 1.7 2.95h-3.37zm-4.14-2.74q.31-1.83.97-3.11a6.5 6.5 0 0 0-3.67 3.45q1.24-.21 2.7-.34zm4.54 0q1.46.13 2.7.34a6.5 6.5 0 0 0-3.67-3.45q.66 1.28.97 3.11zm-.85-1.48q-.1-.72-.15-1.48H5.93q.05.76.15 1.48v1.26q.96-.13 1.82-.21 1.82-.21 1.82.21v-1.26zM8 15a7 7 0 1 1 0-14 7 7 0 0 1 0 14z"/>
  </g>
  <defs>
    <clipPath id="a">
      <path fill="#fff" d="M0 0h16v16H0z"/>
    </clipPath>
  </defs>
</svg>